<?xml version="1.0" encoding="UTF-8"?>
<svg xmlns="http://www.w3.org/2000/svg" width="1080" height="1350" viewBox="0 0 1080 1350">
  <defs>
  <filter id="paper" x="0" y="0" width="100%" height="100%">
    <feTurbulence type="fractalNoise" baseFrequency="0.78" numOctaves="2" seed="7" result="noise"/>
    <feColorMatrix in="noise" type="saturate" values="0" result="gray"/>
    <feComponentTransfer in="gray" result="faded"><feFuncA type="table" tableValues="0 0.025"/></feComponentTransfer>
    <feBlend in="SourceGraphic" in2="faded" mode="multiply"/>
  </filter>
  <style>
    .sans{font-family:"Noto Sans SC","Microsoft YaHei",sans-serif}
    .serif{font-family:"Noto Serif SC","SimSun",serif}
    .latin{font-family:Arial,"Noto Sans SC",sans-serif}
  </style>
</defs>
  <g filter="url(#paper)">
    <rect width="1080" height="1350" fill="#f4f0e7"/>
    <rect width="18" height="1350" fill="#0b7b61"/>
    <g transform="translate(72 54)">
  <circle cx="31" cy="31" r="31" fill="#102f42"/>
  <text x="31" y="41" text-anchor="middle" class="serif" font-size="25" font-weight="800" fill="#fff">数</text>
  <text x="79" y="26" class="sans" font-size="23" font-weight="800" fill="#102f42">数字工具指南</text>
  <text x="79" y="51" class="sans" font-size="13" font-weight="650" fill="#718087" letter-spacing="2">独立核验 · 小白友好</text>
</g>
    <text x="1008" y="75" text-anchor="end" class="latin" font-size="13" font-weight="800" fill="#0b7b61" letter-spacing="2">EDITORIAL GUIDE / 01</text>
    <line x1="72" y1="150" x2="1008" y2="150" stroke="#c8c0b2"/>

    <text x="72" y="258" class="sans" font-size="16" font-weight="800" fill="#0b7b61" letter-spacing="3">官方下载 · 来源识别</text>
    <g transform="translate(820 212) scale(1.18)">
  <circle cx="58" cy="58" r="55" fill="none" stroke="#102f42" stroke-width="2"/>
  <circle cx="58" cy="58" r="31" fill="none" stroke="#0b7b61" stroke-width="2"/>
  <line x1="58" y1="0" x2="58" y2="23" stroke="#102f42" stroke-width="2"/>
  <line x1="58" y1="93" x2="58" y2="116" stroke="#102f42" stroke-width="2"/>
  <line x1="0" y1="58" x2="23" y2="58" stroke="#102f42" stroke-width="2"/>
  <line x1="93" y1="58" x2="116" y2="58" stroke="#102f42" stroke-width="2"/>
  <circle cx="58" cy="58" r="13" fill="#0b7b61"/>
  <path d="M51 58l5 5 10-12" fill="none" stroke="#fff" stroke-width="3" stroke-linecap="round" stroke-linejoin="round"/>
</g>
    <text x="888" y="383" text-anchor="middle" class="latin" font-size="12" font-weight="800" fill="#102f42" letter-spacing="2">SOURCE VERIFIED</text>

    <text x="72" y="440" class="serif" font-size="82" font-weight="720" fill="#102f42">别从陌生链接</text>
    <text x="72" y="552" class="serif" font-size="82" font-weight="720" fill="#102f42">下载 AI 软件</text>
    <rect x="72" y="604" width="136" height="6" fill="#b58532"/>
    <text x="72" y="680" class="sans" font-size="24" font-weight="450" fill="#56666e">安全下载的关键，不是找到文件，</text>
    <text x="72" y="720" class="sans" font-size="24" font-weight="650" fill="#102f42">而是确认它来自谁。</text>

    <g transform="translate(72 858)">
      <line x1="0" y1="0" x2="936" y2="0" stroke="#c8c0b2"/>
      <g transform="translate(0 54)"><text class="latin" font-size="52" font-weight="700" fill="#102f42">05</text><text x="0" y="82" class="sans" font-size="15" font-weight="700" fill="#647178">常用 AI</text></g>
      <g transform="translate(306 54)"><text class="latin" font-size="52" font-weight="700" fill="#102f42">03</text><text x="0" y="82" class="sans" font-size="15" font-weight="700" fill="#647178">官方来源</text></g>
      <g transform="translate(612 54)"><text class="latin" font-size="52" font-weight="700" fill="#102f42">04</text><text x="0" y="82" class="sans" font-size="15" font-weight="700" fill="#647178">核验步骤</text></g>
      <line x1="0" y1="178" x2="936" y2="178" stroke="#c8c0b2"/>
    </g>

    <g transform="translate(72 1124)">
      <text x="0" y="0" class="sans" font-size="13" font-weight="800" fill="#0b7b61" letter-spacing="2">官方来源</text>
      <text x="0" y="45" class="latin" font-size="19" font-weight="700" fill="#102f42">WEBSITE</text>
      <text x="205" y="45" class="latin" font-size="19" font-weight="700" fill="#102f42">APP STORE</text>
      <text x="430" y="45" class="latin" font-size="19" font-weight="700" fill="#102f42">GOOGLE PLAY</text>
      <text x="936" y="45" text-anchor="end" class="latin" font-size="13" font-weight="800" fill="#b58532">DTG-DL-001</text>
    </g>
    <rect x="72" y="1248" width="936" height="50" fill="#dcece6"/>
    <rect x="72" y="1248" width="10" height="50" fill="#0b7b61"/>
    <text x="102" y="1280" class="sans" font-size="15" font-weight="800" fill="#102f42">资料核验 2026-07-13</text>
    <text x="978" y="1280" text-anchor="end" class="sans" font-size="14" font-weight="650" fill="#5e6e75">不保存账号、密码或付款信息</text>
  </g>
</svg>